<svg version="1.2" xmlns="http://www.w3.org/2000/svg" viewBox="0 0 728 596" width="728" height="596">
	<title>imgbin-calvary-christian-cross-silhouette-celtic-cross-christian-cross-UiT3q2cJWhUE0bCiqjf9ngb0C-svg</title>
	<style>
		.s0 { fill: #ffffff } 
	</style>
	<g id="Background">
		<path id="Path 0" class="s0" d="m348.5 0h15.5c12.8 0 15.9 0.3 18 1.6c1.4 1 4.5 3.5 6.8 5.8c2.4 2.3 5.7 6.7 7.3 9.8c1.6 3.2 3.4 7.7 3.9 10c1.1 4.1 1.3 4.4 6.3 5.6c2.9 0.7 7.2 2.3 9.6 3.5c2.4 1.2 6.7 4.7 9.5 7.7c3.3 3.5 6 7.7 7.5 11.5c1.9 5 2.2 7.4 1.9 14.5c-0.3 6.4-1 9.6-2.8 13c-1.3 2.5-4.6 6.9-7.4 9.8c-2.8 2.9-7.3 6.4-10.1 7.8c-2.7 1.3-7.1 2.8-14.5 3.9v82.5h82.5l0.7-4.7c0.4-2.7 2-7.3 3.5-10.3c1.6-3 4.8-7.4 7.3-9.8c2.5-2.4 7-5.6 10-7c4.8-2.3 6.8-2.7 15-2.7c8.1 0 10.2 0.4 14.5 2.5c2.7 1.4 7.4 4.8 10.3 7.5c3 2.8 6.4 7.3 7.7 10c1.3 2.8 2.7 6.9 3.2 9.3c0.6 3.5 1.3 4.4 3.3 4.8c1.4 0.3 4.5 1.3 7 2.1c2.5 0.9 6.1 2.6 8 3.8c1.9 1.2 5.7 4.6 8.3 7.6c2.7 3.1 5.7 7.8 6.9 10.9c1.6 4.4 1.9 7.2 1.6 14c-0.3 7-0.9 9.4-3.3 14c-1.7 3-4.9 7.4-7.3 9.7c-2.3 2.4-6 5.2-8.2 6.3c-2.2 1.1-6.4 2.6-14.5 4.7l-2.5 7.5c-1.4 4.2-3.9 9.5-5.6 11.9c-1.7 2.4-6 6.3-9.5 8.7c-3.5 2.4-8.2 4.8-10.4 5.4c-2.2 0.5-7.4 0.8-11.5 0.7c-5.9-0.3-8.8-1-13.4-3.4c-3.3-1.7-8.1-5.4-11-8.5c-2.8-3-5.9-7.5-6.8-10c-1-2.5-2.2-6.4-3.8-13h-82v232l2.7 0.6c1.6 0.3 4.8 1.3 7.3 2.1c2.5 0.9 6.1 2.6 8 3.8c1.9 1.2 5.7 4.6 8.3 7.6c2.7 3 5.7 7.8 6.8 10.7c1.2 3.2 1.9 7.7 1.9 12c0 3.7-0.4 8.3-0.9 10.2c-0.6 1.9-2.9 6.4-5.3 9.9c-2.6 4-6.3 7.8-9.3 9.9c-2.8 1.8-8.3 4.3-12.3 5.5c-6.5 2-7.2 2.5-7.2 4.7c0 1.4-1.1 5-2.3 8c-1.2 3-3.6 7.3-5.3 9.5c-1.7 2.2-5.3 5.5-12.9 10.5h-31.5l-5.3-4c-2.8-2.3-6.7-6.2-8.5-8.8c-1.8-2.6-3.9-6.7-4.6-9.2c-0.8-2.5-1.7-5.6-1.9-7c-0.5-2-1.4-2.7-4.9-3.3c-2.4-0.5-6.6-1.9-9.3-3.2c-2.8-1.3-7-4.4-9.5-6.8c-2.5-2.4-5.8-6.8-7.4-9.8c-2.4-4.4-3.1-6.9-3.4-13.4c-0.2-4.4 0.1-9.8 0.6-12c0.6-2.2 2.9-6.7 5-10c2.4-3.6 6.1-7.5 9.3-9.7c3.5-2.5 7.9-4.4 19.9-7.3v-232.5h-82l-0.6 2.8c-0.3 1.5-1.3 5-2.2 7.7c-0.9 2.8-3 7-4.7 9.5c-1.7 2.5-6 6.4-9.6 8.8c-3.5 2.4-8.2 4.8-10.4 5.4c-2.2 0.5-7.4 0.8-11.5 0.6c-5.8-0.3-8.9-1.1-13.4-3.3c-3.4-1.7-8.1-5.3-11-8.5c-3.2-3.4-6-7.7-7.4-11.3c-1.2-3.1-2.2-6.4-2.2-7.2c0-0.8-0.2-2.2-0.5-3c-0.3-0.8-1.6-1.5-3-1.5c-1.4 0-5.1-1-8.2-2.2c-4.2-1.6-7.6-4-12.4-8.8c-4.9-4.8-7.1-8-8.7-12.2c-1.5-3.8-2.2-8.1-2.2-12.5c0-3.8 0.7-8.8 1.5-11.3c0.9-2.5 3-6.7 4.8-9.4c1.8-2.7 5.4-6.5 8.2-8.5c2.7-2 8.3-4.7 19.8-8.6l1.4-5.5c0.8-3 2.5-7.4 3.8-9.7c1.4-2.4 4.2-6 6.4-8c2.1-2.1 6.2-5.1 9.2-6.8c5-2.8 6.2-3 15.4-3c8.3 0 10.8 0.4 14.8 2.3c2.6 1.2 7.1 4.4 10 7.1c2.8 2.7 6.4 7.3 7.9 10.2c1.5 3 2.9 7.5 3.8 14.9h83v-82l-2.7-0.6c-1.6-0.3-4.8-1.3-7.3-2.1c-2.5-0.9-6.1-2.6-8-3.8c-1.9-1.2-5.7-4.6-8.3-7.6c-2.7-3-5.7-7.8-6.8-10.6c-1.2-3.3-1.9-7.8-1.9-12c0-3.8 0.4-8.4 1-10.3c0.5-1.9 2.7-6.3 4.8-9.7c2.8-4.4 5.7-7.3 9.8-10c3.3-2.2 8.8-4.7 18.9-7.4l1.2-5.7c0.7-3.4 2.8-8.1 5.1-11.7c2.4-3.6 6.1-7.5 9.3-9.7z"></path>
	</g>
</svg>